<svg id="EU-erc" xmlns="http://www.w3.org/2000/svg" width="88.982" height="31.762" viewBox="0 0 88.982 31.762">
  <g id="Raggruppa_1062" data-name="Raggruppa 1062">
    <path id="Tracciato_1137" data-name="Tracciato 1137" d="M0,39Z" transform="translate(55.59 -7.238)" fill="#fff"/>
    <g id="EU" transform="translate(0 0)">
      <g id="Raggruppa_1088" data-name="Raggruppa 1088">
        <g id="EU-2" data-name="EU">
          <rect id="Rettangolo_1633" data-name="Rettangolo 1633" width="47.536" height="31.762" fill="#002f79"/>
        </g>
      </g>
      <g id="Raggruppa_791" data-name="Raggruppa 791" transform="translate(11.556 3.529)">
        <path id="Tracciato_790" data-name="Tracciato 790" d="M246.933,786.187l.4,1.219h1.282l-1.037.754.4,1.219-1.038-.754-1.037.754.4-1.219-1.037-.754h1.282Z" transform="translate(-225.491 -770.305)" fill="#ffc000"/>
        <path id="Tracciato_791" data-name="Tracciato 791" d="M115.434,786.187l.4,1.219h1.282l-1.037.754.4,1.219-1.037-.754-1.038.754.4-1.219-1.037-.754h1.282Z" transform="translate(-112.344 -770.305)" fill="#ffc000"/>
        <path id="Tracciato_792" data-name="Tracciato 792" d="M115.434,710.32l.4,1.22h1.282l-1.037.754.4,1.219-1.037-.754-1.038.754.4-1.219-1.037-.754h1.282Z" transform="translate(-112.344 -705.026)" fill="#ffc000"/>
        <path id="Tracciato_793" data-name="Tracciato 793" d="M246.933,710.32l.4,1.22h1.282l-1.037.754.4,1.219-1.038-.754-1.037.754.4-1.219-1.037-.754h1.282Z" transform="translate(-225.491 -705.026)" fill="#ffc000"/>
        <path id="Tracciato_794" data-name="Tracciato 794" d="M143.25,814l.4,1.219h1.282l-1.037.754.4,1.219-1.037-.753-1.037.753.4-1.219-1.037-.754h1.282Z" transform="translate(-136.278 -794.24)" fill="#ffc000"/>
        <path id="Tracciato_795" data-name="Tracciato 795" d="M219.116,814l.4,1.219h1.282l-1.037.754.4,1.219-1.037-.753-1.037.753.4-1.219-1.037-.754h1.282Z" transform="translate(-201.556 -794.24)" fill="#ffc000"/>
        <path id="Tracciato_796" data-name="Tracciato 796" d="M143.25,682.5l.4,1.22h1.282l-1.037.754.4,1.219-1.037-.754-1.037.754.4-1.219-1.037-.754h1.282Z" transform="translate(-136.278 -681.092)" fill="#ffc000"/>
        <path id="Tracciato_797" data-name="Tracciato 797" d="M219.116,682.5l.4,1.22h1.282l-1.037.754.4,1.219-1.037-.754-1.037.754.4-1.219-1.037-.754h1.282Z" transform="translate(-201.556 -681.092)" fill="#ffc000"/>
        <path id="Tracciato_798" data-name="Tracciato 798" d="M257.047,748.255l.4,1.219h1.282l-1.037.754.4,1.219-1.038-.753-1.037.753.4-1.219-1.037-.754h1.282Z" transform="translate(-234.194 -737.668)" fill="#ffc000"/>
        <path id="Tracciato_799" data-name="Tracciato 799" d="M105.318,748.255l.4,1.219H107l-1.037.754.4,1.219-1.037-.753-1.038.753.4-1.219-1.037-.754h1.282Z" transform="translate(-103.64 -737.668)" fill="#ffc000"/>
        <path id="Tracciato_800" data-name="Tracciato 800" d="M181.182,824.117l.4,1.219h1.282l-1.037.753.4,1.22-1.037-.754-1.037.754.4-1.22-1.037-.753h1.282Z" transform="translate(-168.916 -802.942)" fill="#ffc000"/>
        <path id="Tracciato_801" data-name="Tracciato 801" d="M181.182,672.389l.4,1.219h1.282l-1.037.753.4,1.219-1.037-.754-1.037.754.4-1.219-1.037-.753h1.282Z" transform="translate(-168.916 -672.389)" fill="#ffc000"/>
      </g>
    </g>
    <rect id="Rettangolo_1635" data-name="Rettangolo 1635" width="0.544" height="31.762" transform="translate(52.122 0)" fill="#fff"/>
    <g id="ERC" transform="translate(57.219)">
      <path id="Tracciato_1138" data-name="Tracciato 1138" d="M123.822,44.522a.286.286,0,1,0,.148-.044.25.25,0,0,0-.148.044m2.357-1.927a.272.272,0,1,0,.385,0,.261.261,0,0,0-.193-.089.459.459,0,0,0-.193.089m-2.1-.148a.331.331,0,1,0,.178-.059.836.836,0,0,0-.178.059m-2.1-.5a.537.537,0,1,0,.741.163.546.546,0,0,0-.459-.252.488.488,0,0,0-.282.089m5.884-1.319a.276.276,0,1,0,.385-.059.311.311,0,0,0-.163-.059.368.368,0,0,0-.222.119m-1.823-.119a.34.34,0,1,0,.237-.1.339.339,0,0,0-.237.1m-2.149-.089a.535.535,0,1,0,.756.015.565.565,0,0,0-.385-.163.461.461,0,0,0-.371.148m-1.956-.652a.567.567,0,1,0,.786.163.571.571,0,0,0-.474-.252.583.583,0,0,0-.311.089m-1.793-.771a.666.666,0,1,0,.919.207.692.692,0,0,0-.563-.311.591.591,0,0,0-.356.1m5.35-.519a.534.534,0,1,0,.741-.148.534.534,0,0,0-.3-.089.542.542,0,0,0-.445.237m-2.134-.119a.566.566,0,1,0,.8.015.553.553,0,0,0-.4-.178.573.573,0,0,0-.4.163m4.18-.059a.341.341,0,1,0,.474-.089.326.326,0,0,0-.193-.059.337.337,0,0,0-.282.148m1.882-.4a.287.287,0,0,0,.148.371.272.272,0,0,0,.356-.133.294.294,0,0,0-.133-.371.279.279,0,0,0-.119-.03.274.274,0,0,0-.252.163m-7.959,0a.662.662,0,1,0,.459-.193.739.739,0,0,0-.459.193m-1.927-.978a.733.733,0,1,0,.474-.178.883.883,0,0,0-.474.178m2.994-.282a.662.662,0,1,0,.919-.178.727.727,0,0,0-.371-.119.711.711,0,0,0-.548.3m2.016-.059a.565.565,0,1,0,.786-.148.647.647,0,0,0-.311-.1.553.553,0,0,0-.474.252m2.045-.119a.541.541,0,1,0,.711-.282.582.582,0,0,0-.207-.044.519.519,0,0,0-.5.326m-9.145-.978a.892.892,0,0,0-.578,1.126.886.886,0,1,0,1.69-.534.9.9,0,0,0-.845-.622.552.552,0,0,0-.267.03m11.19.163a.343.343,0,1,0,.445-.193.433.433,0,0,0-.133-.03.35.35,0,0,0-.311.222m-7.677-.3A.761.761,0,1,0,122,35.126a.71.71,0,0,0-.415-.119.74.74,0,0,0-.637.341m2.431-.3a.664.664,0,0,0,.356.874.676.676,0,0,0,.874-.356.69.69,0,0,0-.356-.874.753.753,0,0,0-.252-.044.643.643,0,0,0-.622.4m1.9-.267a.572.572,0,0,0,.3.741.564.564,0,0,0,.445-1.037.6.6,0,0,0-.222-.044.544.544,0,0,0-.519.341m5.158-.163a.279.279,0,1,0,.326-.222H130.7a.282.282,0,0,0-.267.222M118.8,34.311a.892.892,0,1,0,1.26.059.9.9,0,0,0-.667-.3,1.032,1.032,0,0,0-.593.237m8.478-.133a.538.538,0,1,0,.637-.415.326.326,0,0,0-.119-.015.549.549,0,0,0-.519.43m-5.573-.415a.764.764,0,1,0,.963-.489.671.671,0,0,0-.237-.044.774.774,0,0,0-.726.534m2.149-.252a.666.666,0,1,0,.786-.519.41.41,0,0,0-.133-.015.678.678,0,0,0-.652.534m5.291-.593a.347.347,0,1,0,.415-.267H129.5a.309.309,0,0,0-.356.267M125.66,32.9a.57.57,0,1,0,.682-.43.41.41,0,0,0-.133-.015.567.567,0,0,0-.548.445m-6.106-.119a.892.892,0,1,0,1.186-.43.85.85,0,0,0-.371-.089.947.947,0,0,0-.815.519m11.427-1.541a.274.274,0,1,0,.282.267.279.279,0,0,0-.282-.267h0m-6.269-.089a.66.66,0,1,0,.652.652.639.639,0,0,0-.652-.652h0m-2.683.7a.764.764,0,1,0,.786-.741H122.8a.741.741,0,0,0-.771.741m6.032-.8a.541.541,0,1,0,.548.534.544.544,0,0,0-.548-.534h0m-1.823-.963a.563.563,0,1,0,.563.563.545.545,0,0,0-.563-.563h0m-5.721-.015a.879.879,0,0,0-.889.874.889.889,0,1,0,.889-.874h0m8.908-.415a.348.348,0,1,0,.356.341.358.358,0,0,0-.356-.341h0m-5.1-.474a.669.669,0,0,0,.3,1.3.67.67,0,0,0-.163-1.319c-.03,0-.089.015-.133.015m-2.194-.43a.74.74,0,1,0,.237-.044.737.737,0,0,0-.237.044m5.543-.207a.538.538,0,1,0,.637.415.553.553,0,0,0-.534-.43.22.22,0,0,1-.1.015m2.9-.356a.273.273,0,1,0,.326.207.282.282,0,0,0-.267-.222.089.089,0,0,0-.059.015m-11.22-.148a.9.9,0,1,0,.741,1.63.9.9,0,0,0-.385-1.7.62.62,0,0,0-.356.074m6.329-.148a.567.567,0,1,0,.667.445.581.581,0,0,0-.548-.459.368.368,0,0,1-.119.015m-2-.445a.654.654,0,1,0,.267-.059.581.581,0,0,0-.267.059m5.143-.237a.328.328,0,0,0-.267.4.34.34,0,1,0,.667-.133.349.349,0,0,0-.341-.282c-.015,0-.03.015-.059.015m-8.122-.593a.76.76,0,0,0,.934,1.2.771.771,0,0,0,.133-1.067.758.758,0,0,0-.608-.3.674.674,0,0,0-.459.163m-3.275.089a.894.894,0,0,0,1.364,1.156.889.889,0,0,0-.1-1.245.843.843,0,0,0-.578-.208.792.792,0,0,0-.682.3m9.441-.4a.54.54,0,0,0-.3.7.542.542,0,0,0,1.008-.4.533.533,0,0,0-.5-.326.471.471,0,0,0-.208.03m-2.09-.3a.561.561,0,1,0,.222-.044.5.5,0,0,0-.222.044m-1.986,0a.664.664,0,1,0,.919.193.677.677,0,0,0-.563-.3.551.551,0,0,0-.356.1m6.877-.548a.266.266,0,0,0-.148.356.272.272,0,1,0,.5-.207.289.289,0,0,0-.252-.178c-.03.015-.074.015-.1.03m-1.867-.578a.343.343,0,1,0,.445.193.354.354,0,0,0-.326-.222.458.458,0,0,0-.119.03m-9.011.3a.758.758,0,1,0,1.052-.207.772.772,0,0,0-.43-.133.75.75,0,0,0-.622.341m2.712-.519a.66.66,0,0,0,.934.934.657.657,0,0,0,0-.934.649.649,0,0,0-.474-.193.64.64,0,0,0-.459.193m4.239-.282a.537.537,0,1,0,.741.163.546.546,0,0,0-.459-.252.693.693,0,0,0-.282.089m-2.268-.1a.578.578,0,1,0,.311-.089.623.623,0,0,0-.311.089m-3.424-.652a.662.662,0,1,0,.919-.178.686.686,0,0,0-.371-.119.711.711,0,0,0-.548.3m8.152-.8a.277.277,0,1,0,.385.074.286.286,0,0,0-.385-.074m-6.344,0a.566.566,0,1,0,.8,0,.515.515,0,0,0-.4-.163.6.6,0,0,0-.4.163m4.269-.356a.343.343,0,1,0,.474.1.321.321,0,0,0-.282-.148.456.456,0,0,0-.193.044m-2.149-.089a.519.519,0,1,0,.371-.163.531.531,0,0,0-.371.163m-2.016-1.512a.534.534,0,1,0,.741-.148.534.534,0,0,0-.3-.089.507.507,0,0,0-.445.237m4.357-.267a.277.277,0,0,0,0,.385.272.272,0,0,0,.385-.385.261.261,0,0,0-.193-.089.331.331,0,0,0-.193.089m-2.119.015a.34.34,0,1,0,.237-.1.42.42,0,0,0-.237.1m-.193-1.9a.277.277,0,1,0,.385-.074.3.3,0,0,0-.163-.044.281.281,0,0,0-.222.119" transform="translate(-99.501 -15.843)" fill="#fff" opacity="0.6"/>
      <path id="Tracciato_1139" data-name="Tracciato 1139" d="M107.229,67.306a.892.892,0,1,1-.623-1.1.892.892,0,0,1,.623,1.1" transform="translate(-89.843 -56.368)" fill="#fff"/>
      <path id="Tracciato_1140" data-name="Tracciato 1140" d="M103.29,136.679a.886.886,0,1,1,.8.963.9.9,0,0,1-.8-.963" transform="translate(-87.98 -115.736)" fill="#fff"/>
      <path id="Tracciato_1141" data-name="Tracciato 1141" d="M89.83,134.363a.884.884,0,0,1,1.2-.371.9.9,0,0,1,.371,1.2.888.888,0,1,1-1.571-.83" transform="translate(-76.431 -114.043)" fill="#fff"/>
      <path id="Tracciato_1142" data-name="Tracciato 1142" d="M77.771,126.787a.887.887,0,1,1-.148,1.245.891.891,0,0,1,.148-1.245" transform="translate(-65.958 -107.83)" fill="#fff"/>
      <path id="Tracciato_1143" data-name="Tracciato 1143" d="M69.88,114.91a.892.892,0,0,1,1.1.622.883.883,0,1,1-1.1-.622" transform="translate(-58.971 -97.85)" fill="#fff"/>
      <path id="Tracciato_1144" data-name="Tracciato 1144" d="M67.255,101.562a.889.889,0,1,1-.993.771.887.887,0,0,1,.993-.771" transform="translate(-56.435 -86.503)" fill="#fff"/>
      <path id="Tracciato_1145" data-name="Tracciato 1145" d="M70.306,87.771a.887.887,0,1,1-1.215.311.873.873,0,0,1,1.215-.311" transform="translate(-58.745 -74.654)" fill="#fff"/>
      <path id="Tracciato_1146" data-name="Tracciato 1146" d="M78.41,76.265a.892.892,0,1,1-1.245-.207.9.9,0,0,1,1.245.207" transform="translate(-65.412 -64.646)" fill="#fff"/>
      <path id="Tracciato_1147" data-name="Tracciato 1147" d="M92.089,68.442a.87.87,0,0,1-.726,1.023.887.887,0,0,1-.3-1.749.87.87,0,0,1,1.023.726" transform="translate(-76.941 -57.667)" fill="#fff"/>
      <path id="Tracciato_1148" data-name="Tracciato 1148" d="M103.727,152.756a.763.763,0,1,1-.771-.756.772.772,0,0,1,.771.756" transform="translate(-87.053 -129.472)" fill="#fff"/>
      <path id="Tracciato_1149" data-name="Tracciato 1149" d="M119.43,149.866a.764.764,0,1,1-.963-.489.764.764,0,0,1,.963.489" transform="translate(-100.458 -127.204)" fill="#fff"/>
      <path id="Tracciato_1150" data-name="Tracciato 1150" d="M101.8,53.038a.764.764,0,1,1,.741.786.763.763,0,0,1-.741-.786" transform="translate(-86.712 -44.546)" fill="#fff"/>
      <path id="Tracciato_1151" data-name="Tracciato 1151" d="M116.868,54.842a.759.759,0,1,1,.474.963.756.756,0,0,1-.474-.963" transform="translate(-99.512 -46.276)" fill="#fff"/>
      <path id="Tracciato_1152" data-name="Tracciato 1152" d="M86.517,55.966a.76.76,0,1,1,.949.5.751.751,0,0,1-.949-.5" transform="translate(-73.667 -46.836)" fill="#fff"/>
      <path id="Tracciato_1153" data-name="Tracciato 1153" d="M71.909,64.076a.762.762,0,1,1,1.067.148.758.758,0,0,1-1.067-.148" transform="translate(-61.119 -53.538)" fill="#fff"/>
      <path id="Tracciato_1154" data-name="Tracciato 1154" d="M55.242,88.721a.769.769,0,1,1,.978-.474.772.772,0,0,1-.978.474" transform="translate(-46.616 -74.3)" fill="#fff"/>
      <path id="Tracciato_1155" data-name="Tracciato 1155" d="M61.327,74.895a.767.767,0,1,1,1.067-.193.775.775,0,0,1-1.067.193" transform="translate(-51.96 -62.608)" fill="#fff"/>
      <path id="Tracciato_1156" data-name="Tracciato 1156" d="M53.038,104.024a.764.764,0,1,1,.786-.741.745.745,0,0,1-.786.741" transform="translate(-44.546 -87.306)" fill="#fff"/>
      <path id="Tracciato_1157" data-name="Tracciato 1157" d="M55.773,119.491a.764.764,0,1,1,.519-.949.771.771,0,0,1-.519.949" transform="translate(-46.672 -100.505)" fill="#fff"/>
      <path id="Tracciato_1158" data-name="Tracciato 1158" d="M63.307,133.37a.763.763,0,1,1,.163-1.067.76.76,0,0,1-.163,1.067" transform="translate(-52.888 -112.428)" fill="#fff"/>
      <path id="Tracciato_1159" data-name="Tracciato 1159" d="M86.8,150.437a.764.764,0,1,1-.459-.978.753.753,0,0,1,.459.978" transform="translate(-72.672 -127.271)" fill="#fff"/>
      <path id="Tracciato_1160" data-name="Tracciato 1160" d="M74.314,144.037a.765.765,0,1,1-.178-1.067.774.774,0,0,1,.178,1.067" transform="translate(-62.116 -121.656)" fill="#fff"/>
      <path id="Tracciato_1161" data-name="Tracciato 1161" d="M104.134,40.367a.667.667,0,1,1-.667-.667.664.664,0,0,1,.667.667" transform="translate(-87.564 -33.816)" fill="#fff"/>
      <path id="Tracciato_1162" data-name="Tracciato 1162" d="M116.426,41.707a.666.666,0,1,1-.519-.786.671.671,0,0,1,.519.786" transform="translate(-98.048 -34.845)" fill="#fff"/>
      <path id="Tracciato_1163" data-name="Tracciato 1163" d="M127.663,45.293a.662.662,0,1,1-.371-.86.649.649,0,0,1,.371.86" transform="translate(-107.654 -37.808)" fill="#fff"/>
      <path id="Tracciato_1164" data-name="Tracciato 1164" d="M40.367,103a.667.667,0,1,1-.667.682.664.664,0,0,1,.667-.682" transform="translate(-33.816 -87.734)" fill="#fff"/>
      <path id="Tracciato_1165" data-name="Tracciato 1165" d="M41.719,90.645a.663.663,0,1,1-.771.534.659.659,0,0,1,.771-.534" transform="translate(-34.871 -77.202)" fill="#fff"/>
      <path id="Tracciato_1166" data-name="Tracciato 1166" d="M45.093,79.433a.662.662,0,1,1-.86.371.661.661,0,0,1,.86-.371" transform="translate(-37.637 -67.62)" fill="#fff"/>
      <path id="Tracciato_1167" data-name="Tracciato 1167" d="M51.311,67.854a.664.664,0,1,1-.919.193.657.657,0,0,1,.919-.193" transform="translate(-42.833 -57.702)" fill="#fff"/>
      <path id="Tracciato_1168" data-name="Tracciato 1168" d="M59.058,58.692a.66.66,0,1,1-.934.015.645.645,0,0,1,.934-.015" transform="translate(-49.35 -49.829)" fill="#fff"/>
      <path id="Tracciato_1169" data-name="Tracciato 1169" d="M68.666,50.685a.664.664,0,1,1-.919-.193.67.67,0,0,1,.919.193" transform="translate(-57.446 -42.918)" fill="#fff"/>
      <path id="Tracciato_1170" data-name="Tracciato 1170" d="M78.786,45.411a.664.664,0,1,1-.874-.341.657.657,0,0,1,.874.341" transform="translate(-66.025 -38.342)" fill="#fff"/>
      <path id="Tracciato_1171" data-name="Tracciato 1171" d="M90.777,41.9a.663.663,0,1,1-.8-.489.675.675,0,0,1,.8.489" transform="translate(-76.207 -35.263)" fill="#fff"/>
      <path id="Tracciato_1172" data-name="Tracciato 1172" d="M102.9,166.267a.667.667,0,1,1,.667.652.652.652,0,0,1-.667-.652" transform="translate(-87.649 -141.056)" fill="#fff"/>
      <path id="Tracciato_1173" data-name="Tracciato 1173" d="M90.622,164.981a.685.685,0,0,1,.786-.534.678.678,0,0,1,.534.771.685.685,0,0,1-.786.534.648.648,0,0,1-.534-.771" transform="translate(-77.179 -140.067)" fill="#fff"/>
      <path id="Tracciato_1174" data-name="Tracciato 1174" d="M79.4,161.6a.662.662,0,1,1,.371.86.649.649,0,0,1-.371-.86" transform="translate(-67.585 -137.297)" fill="#fff"/>
      <path id="Tracciato_1175" data-name="Tracciato 1175" d="M67.854,155.285a.664.664,0,1,1,.193.919.652.652,0,0,1-.193-.919" transform="translate(-57.702 -132.015)" fill="#fff"/>
      <path id="Tracciato_1176" data-name="Tracciato 1176" d="M58.624,147.639a.66.66,0,1,1,.015.934.658.658,0,0,1-.015-.934" transform="translate(-49.776 -125.585)" fill="#fff"/>
      <path id="Tracciato_1177" data-name="Tracciato 1177" d="M50.647,137.954a.664.664,0,1,1-.193.919.655.655,0,0,1,.193-.919" transform="translate(-42.881 -117.412)" fill="#fff"/>
      <path id="Tracciato_1178" data-name="Tracciato 1178" d="M45.324,127.871a.664.664,0,1,1-.341.874.67.67,0,0,1,.341-.874" transform="translate(-38.269 -108.87)" fill="#fff"/>
      <path id="Tracciato_1179" data-name="Tracciato 1179" d="M41.9,115.887a.663.663,0,1,1-.489.8.663.663,0,0,1,.489-.8" transform="translate(-35.263 -98.695)" fill="#fff"/>
      <path id="Tracciato_1180" data-name="Tracciato 1180" d="M126.985,161.559a.668.668,0,1,1,.874.356.664.664,0,0,1-.874-.356" transform="translate(-108.117 -136.822)" fill="#fff"/>
      <path id="Tracciato_1181" data-name="Tracciato 1181" d="M114.918,164.919a.669.669,0,1,1,.8.5.684.684,0,0,1-.8-.5" transform="translate(-97.874 -139.782)" fill="#fff"/>
      <path id="Tracciato_1182" data-name="Tracciato 1182" d="M96.326,30.363a.563.563,0,1,1-.563-.563.563.563,0,0,1,.563.563" transform="translate(-81.09 -25.383)" fill="#fff"/>
      <path id="Tracciato_1183" data-name="Tracciato 1183" d="M113.5,30.586a.564.564,0,0,1-1.1-.267.561.561,0,0,1,.682-.415.572.572,0,0,1,.415.682" transform="translate(-95.73 -25.457)" fill="#fff"/>
      <path id="Tracciato_1184" data-name="Tracciato 1184" d="M127.024,33.842a.561.561,0,1,1-.282-.741.558.558,0,0,1,.282.741" transform="translate(-107.282 -28.151)" fill="#fff"/>
      <path id="Tracciato_1185" data-name="Tracciato 1185" d="M138.972,39.024a.565.565,0,1,1-.148-.786.557.557,0,0,1,.148.786" transform="translate(-117.496 -32.488)" fill="#fff"/>
      <path id="Tracciato_1186" data-name="Tracciato 1186" d="M137.952,169.293a.568.568,0,1,1,.741.311.579.579,0,0,1-.741-.311" transform="translate(-117.469 -143.534)" fill="#fff"/>
      <path id="Tracciato_1187" data-name="Tracciato 1187" d="M124.839,174.706a.567.567,0,1,1,.667.445.573.573,0,0,1-.667-.445" transform="translate(-106.327 -148.235)" fill="#fff"/>
      <path id="Tracciato_1188" data-name="Tracciato 1188" d="M111.2,177.463a.563.563,0,1,1,.563.563.573.573,0,0,1-.563-.563" transform="translate(-94.719 -150.681)" fill="#fff"/>
      <path id="Tracciato_1189" data-name="Tracciato 1189" d="M94.738,177.239a.57.57,0,1,1,.43.682.587.587,0,0,1-.43-.682" transform="translate(-80.688 -150.59)" fill="#fff"/>
      <path id="Tracciato_1190" data-name="Tracciato 1190" d="M82.564,174.764a.568.568,0,1,1,.311.741.574.574,0,0,1-.311-.741" transform="translate(-70.292 -148.56)" fill="#fff"/>
      <path id="Tracciato_1191" data-name="Tracciato 1191" d="M66.511,167.844a.563.563,0,1,1,.133.786.567.567,0,0,1-.133-.786" transform="translate(-56.566 -142.767)" fill="#fff"/>
      <path id="Tracciato_1192" data-name="Tracciato 1192" d="M56.031,160.483a.566.566,0,1,1-.015.8.578.578,0,0,1,.015-.8" transform="translate(-47.583 -136.562)" fill="#fff"/>
      <path id="Tracciato_1193" data-name="Tracciato 1193" d="M45.965,150.28a.571.571,0,0,1,.786.163.567.567,0,1,1-.949.622.582.582,0,0,1,.163-.786" transform="translate(-38.94 -127.93)" fill="#fff"/>
      <path id="Tracciato_1194" data-name="Tracciato 1194" d="M38.648,139.351a.564.564,0,1,1-.3.741.572.572,0,0,1,.3-.741" transform="translate(-32.63 -118.661)" fill="#fff"/>
      <path id="Tracciato_1195" data-name="Tracciato 1195" d="M33.619,127.709a.572.572,0,0,1,.682.415.564.564,0,1,1-.682-.415" transform="translate(-28.268 -108.767)" fill="#fff"/>
      <path id="Tracciato_1196" data-name="Tracciato 1196" d="M30.063,112.1a.576.576,0,0,1,.578.563.571.571,0,1,1-1.141.015.566.566,0,0,1,.563-.578" transform="translate(-25.128 -95.485)" fill="#fff"/>
      <path id="Tracciato_1197" data-name="Tracciato 1197" d="M30.006,96.639a.567.567,0,1,1-.667.445.562.562,0,0,1,.667-.445" transform="translate(-24.981 -82.306)" fill="#fff"/>
      <path id="Tracciato_1198" data-name="Tracciato 1198" d="M32.856,82.151a.564.564,0,1,1-.741.3.572.572,0,0,1,.741-.3" transform="translate(-27.313 -69.938)" fill="#fff"/>
      <path id="Tracciato_1199" data-name="Tracciato 1199" d="M38.724,68.339a.565.565,0,1,1-.786.148.57.57,0,0,1,.786-.148" transform="translate(-32.232 -58.127)" fill="#fff"/>
      <path id="Tracciato_1200" data-name="Tracciato 1200" d="M47.5,55.7a.566.566,0,1,1-.8-.015.564.564,0,0,1,.8.015" transform="translate(-39.628 -47.294)" fill="#fff"/>
      <path id="Tracciato_1201" data-name="Tracciato 1201" d="M57.251,46.265a.567.567,0,0,1-.949.622.567.567,0,1,1,.949-.622" transform="translate(-47.884 -39.195)" fill="#fff"/>
      <path id="Tracciato_1202" data-name="Tracciato 1202" d="M68.5,38.812a.562.562,0,0,1-.311.741.565.565,0,1,1,.311-.741" transform="translate(-57.417 -32.764)" fill="#fff"/>
      <path id="Tracciato_1203" data-name="Tracciato 1203" d="M81.95,33.183a.567.567,0,1,1-.667-.445.562.562,0,0,1,.667.445" transform="translate(-68.848 -27.877)" fill="#fff"/>
      <path id="Tracciato_1204" data-name="Tracciato 1204" d="M87.391,20.124a.538.538,0,1,1-.637-.415.521.521,0,0,1,.637.415" transform="translate(-73.533 -16.774)" fill="#fff"/>
      <path id="Tracciato_1205" data-name="Tracciato 1205" d="M104.782,18.53a.544.544,0,0,1-.548.534.531.531,0,0,1-.534-.534.544.544,0,0,1,.548-.534.522.522,0,0,1,.534.534" transform="translate(-88.33 -15.329)" fill="#fff"/>
      <path id="Tracciato_1206" data-name="Tracciato 1206" d="M124.787,20.987a.564.564,0,0,1-.652.4.541.541,0,0,1,.252-1.052.539.539,0,0,1,.4.652" transform="translate(-105.386 -17.311)" fill="#fff"/>
      <path id="Tracciato_1207" data-name="Tracciato 1207" d="M138.443,25.661a.541.541,0,1,1-.282-.711.537.537,0,0,1,.282.711" transform="translate(-117.041 -21.215)" fill="#fff"/>
      <path id="Tracciato_1208" data-name="Tracciato 1208" d="M135.7,183.694a.535.535,0,1,1,.7.3.548.548,0,0,1-.7-.3" transform="translate(-115.556 -155.845)" fill="#fff"/>
      <path id="Tracciato_1209" data-name="Tracciato 1209" d="M120.238,188.076a.544.544,0,1,1,.637.43.552.552,0,0,1-.637-.43" transform="translate(-102.408 -159.649)" fill="#fff"/>
      <path id="Tracciato_1210" data-name="Tracciato 1210" d="M102,189.634a.541.541,0,1,1,.534.548.554.554,0,0,1-.534-.548" transform="translate(-86.882 -161.073)" fill="#fff"/>
      <path id="Tracciato_1211" data-name="Tracciato 1211" d="M85.635,187.65a.538.538,0,1,1,.415.637.538.538,0,0,1-.415-.637" transform="translate(-72.933 -159.474)" fill="#fff"/>
      <path id="Tracciato_1212" data-name="Tracciato 1212" d="M69.337,182.231a.541.541,0,1,1,.282.711.533.533,0,0,1-.282-.711" transform="translate(-59.022 -154.945)" fill="#fff"/>
      <path id="Tracciato_1213" data-name="Tracciato 1213" d="M52.575,172.479a.54.54,0,1,1,.1.756.541.541,0,0,1-.1-.756" transform="translate(-44.69 -146.735)" fill="#fff"/>
      <path id="Tracciato_1214" data-name="Tracciato 1214" d="M42.462,163.516a.535.535,0,1,1-.015.756.537.537,0,0,1,.015-.756" transform="translate(-36.029 -139.15)" fill="#fff"/>
      <path id="Tracciato_1215" data-name="Tracciato 1215" d="M32.265,150.7a.541.541,0,0,1,.741.148.537.537,0,0,1-.9.578.52.52,0,0,1,.163-.726" transform="translate(-27.27 -128.288)" fill="#fff"/>
      <path id="Tracciato_1216" data-name="Tracciato 1216" d="M25.567,138.337a.541.541,0,1,1-.282.711.558.558,0,0,1,.282-.711" transform="translate(-21.506 -117.795)" fill="#fff"/>
      <path id="Tracciato_1217" data-name="Tracciato 1217" d="M20.35,122.135a.538.538,0,1,1-.415.637.546.546,0,0,1,.415-.637" transform="translate(-16.97 -104.023)" fill="#fff"/>
      <path id="Tracciato_1218" data-name="Tracciato 1218" d="M18.434,104.4a.541.541,0,1,1-.534.548.554.554,0,0,1,.534-.548" transform="translate(-15.247 -88.927)" fill="#fff"/>
      <path id="Tracciato_1219" data-name="Tracciato 1219" d="M20.1,87.038a.552.552,0,0,1,.43.637.531.531,0,0,1-.637.415.552.552,0,0,1-.43-.637.558.558,0,0,1,.637-.415" transform="translate(-16.571 -74.129)" fill="#fff"/>
      <path id="Tracciato_1220" data-name="Tracciato 1220" d="M24.983,71.251a.535.535,0,1,1-.7.3.528.528,0,0,1,.7-.3" transform="translate(-20.656 -60.654)" fill="#fff"/>
      <path id="Tracciato_1221" data-name="Tracciato 1221" d="M32.817,56.5a.534.534,0,1,1-.741.148.544.544,0,0,1,.741-.148" transform="translate(-27.244 -48.05)" fill="#fff"/>
      <path id="Tracciato_1222" data-name="Tracciato 1222" d="M45.118,42.031a.535.535,0,1,1-.756-.015.524.524,0,0,1,.756.015" transform="translate(-37.648 -35.658)" fill="#fff"/>
      <path id="Tracciato_1223" data-name="Tracciato 1223" d="M56.965,32.587a.528.528,0,0,1-.148.741.541.541,0,0,1-.741-.148.528.528,0,0,1,.148-.741.518.518,0,0,1,.741.148" transform="translate(-47.687 -27.547)" fill="#fff"/>
      <path id="Tracciato_1224" data-name="Tracciato 1224" d="M71.444,24.883a.535.535,0,1,1-.7-.3.535.535,0,0,1,.7.3" transform="translate(-59.972 -20.911)" fill="#fff"/>
      <path id="Tracciato_1225" data-name="Tracciato 1225" d="M95.882,10.236a.341.341,0,1,1-.341-.341.327.327,0,0,1,.341.341" transform="translate(-81.09 -8.427)" fill="#fff"/>
      <path id="Tracciato_1226" data-name="Tracciato 1226" d="M105.463.282A.282.282,0,1,1,105.182,0a.281.281,0,0,1,.282.282" transform="translate(-89.352)" fill="#fff"/>
      <path id="Tracciato_1227" data-name="Tracciato 1227" d="M130.4,3.293a.273.273,0,1,1-.208-.326.263.263,0,0,1,.208.326" transform="translate(-110.615 -2.523)" fill="#fff"/>
      <path id="Tracciato_1228" data-name="Tracciato 1228" d="M149.572,9.938a.278.278,0,1,1-.133-.371.272.272,0,0,1,.133.371" transform="translate(-126.955 -8.13)" fill="#fff"/>
      <path id="Tracciato_1229" data-name="Tracciato 1229" d="M143.882,203.638a.277.277,0,1,1,.356.163.287.287,0,0,1-.356-.163" transform="translate(-122.54 -173.136)" fill="#fff"/>
      <path id="Tracciato_1230" data-name="Tracciato 1230" d="M124.671,209.1a.279.279,0,1,1,.326.222.3.3,0,0,1-.326-.222" transform="translate(-106.189 -177.824)" fill="#fff"/>
      <path id="Tracciato_1231" data-name="Tracciato 1231" d="M102.894,210.867a.274.274,0,1,1,.267.282.279.279,0,0,1-.267-.282" transform="translate(-87.642 -179.386)" fill="#fff"/>
      <path id="Tracciato_1232" data-name="Tracciato 1232" d="M80.834,207.875a.281.281,0,0,1,.326-.207.273.273,0,0,1-.119.534.253.253,0,0,1-.208-.326" transform="translate(-68.844 -176.884)" fill="#fff"/>
      <path id="Tracciato_1233" data-name="Tracciato 1233" d="M61.268,201.1a.278.278,0,1,1,.133.371.294.294,0,0,1-.133-.371" transform="translate(-52.168 -171.162)" fill="#fff"/>
      <path id="Tracciato_1234" data-name="Tracciato 1234" d="M42.3,189.762a.276.276,0,1,1,.059.385.281.281,0,0,1-.059-.385" transform="translate(-35.989 -161.542)" fill="#fff"/>
      <path id="Tracciato_1235" data-name="Tracciato 1235" d="M28.478,177.263a.273.273,0,1,1-.015.385.264.264,0,0,1,.015-.385" transform="translate(-24.18 -150.925)" fill="#fff"/>
      <path id="Tracciato_1236" data-name="Tracciato 1236" d="M17.282,162.934a.273.273,0,0,1,.385.089.278.278,0,1,1-.385-.089" transform="translate(-14.614 -138.746)" fill="#fff"/>
      <path id="Tracciato_1237" data-name="Tracciato 1237" d="M9.45,148.568a.278.278,0,1,1-.133.371.261.261,0,0,1,.133-.371" transform="translate(-7.909 -126.529)" fill="#fff"/>
      <path id="Tracciato_1238" data-name="Tracciato 1238" d="M3.075,129.867a.273.273,0,1,1-.207.326.273.273,0,0,1,.207-.326" transform="translate(-2.438 -110.615)" fill="#fff"/>
      <path id="Tracciato_1239" data-name="Tracciato 1239" d="M.267,106.7a.274.274,0,0,1,.015.548A.279.279,0,0,1,0,106.982a.269.269,0,0,1,.267-.282" transform="translate(0 -90.886)" fill="#fff"/>
      <path id="Tracciato_1240" data-name="Tracciato 1240" d="M1.9,86.991a.279.279,0,1,1-.326.222.3.3,0,0,1,.326-.222" transform="translate(-1.334 -74.096)" fill="#fff"/>
      <path id="Tracciato_1241" data-name="Tracciato 1241" d="M8.025,65.881a.272.272,0,1,1-.356.148.273.273,0,0,1,.356-.148" transform="translate(-6.513 -56.099)" fill="#fff"/>
      <path id="Tracciato_1242" data-name="Tracciato 1242" d="M18.193,46.808a.277.277,0,1,1-.385.074.269.269,0,0,1,.385-.074" transform="translate(-15.125 -39.827)" fill="#fff"/>
      <path id="Tracciato_1243" data-name="Tracciato 1243" d="M32.138,30.189a.272.272,0,1,1-.385,0,.253.253,0,0,1,.385,0" transform="translate(-26.98 -25.639)" fill="#fff"/>
      <path id="Tracciato_1244" data-name="Tracciato 1244" d="M48.09,17.382a.277.277,0,1,1-.385-.074.269.269,0,0,1,.385.074" transform="translate(-40.531 -14.699)" fill="#fff"/>
      <path id="Tracciato_1245" data-name="Tracciato 1245" d="M67.085,7.58a.273.273,0,0,1-.148.356.268.268,0,0,1-.356-.163.273.273,0,0,1,.148-.356.286.286,0,0,1,.356.163" transform="translate(-56.695 -6.305)" fill="#fff"/>
      <path id="Tracciato_1246" data-name="Tracciato 1246" d="M84.516,2.393a.279.279,0,1,1-.326-.222.283.283,0,0,1,.326.222" transform="translate(-71.518 -1.845)" fill="#fff"/>
      <path id="Tracciato_1247" data-name="Tracciato 1247" d="M117.313,10.461a.343.343,0,1,1-.252-.415.34.34,0,0,1,.252.415" transform="translate(-99.35 -8.549)" fill="#fff"/>
      <path id="Tracciato_1248" data-name="Tracciato 1248" d="M136.606,15.043a.345.345,0,1,1-.163-.459.355.355,0,0,1,.163.459" transform="translate(-115.797 -12.39)" fill="#fff"/>
      <path id="Tracciato_1249" data-name="Tracciato 1249" d="M151.715,21.826a.341.341,0,1,1-.089-.474.338.338,0,0,1,.089.474" transform="translate(-128.698 -18.136)" fill="#fff"/>
      <path id="Tracciato_1250" data-name="Tracciato 1250" d="M149.849,189.494a.343.343,0,1,1,.445.193.338.338,0,0,1-.445-.193" transform="translate(-127.617 -161.007)" fill="#fff"/>
      <path id="Tracciato_1251" data-name="Tracciato 1251" d="M132.75,196.574a.332.332,0,0,1,.267-.4.342.342,0,0,1,.4.267.332.332,0,0,1-.267.4.322.322,0,0,1-.4-.267" transform="translate(-113.068 -167.095)" fill="#fff"/>
      <path id="Tracciato_1252" data-name="Tracciato 1252" d="M113,200.241a.348.348,0,1,1,.341.356.348.348,0,0,1-.341-.356" transform="translate(-96.252 -170.272)" fill="#fff"/>
      <path id="Tracciato_1253" data-name="Tracciato 1253" d="M92.146,199.7a.344.344,0,0,1,.415-.252.352.352,0,0,1,.252.415.333.333,0,0,1-.415.252.344.344,0,0,1-.252-.415" transform="translate(-78.481 -169.878)" fill="#fff"/>
      <path id="Tracciato_1254" data-name="Tracciato 1254" d="M75.4,195.814a.348.348,0,1,1,.178.459.336.336,0,0,1-.178-.459" transform="translate(-64.195 -166.616)" fill="#fff"/>
      <path id="Tracciato_1255" data-name="Tracciato 1255" d="M56.391,187.184a.352.352,0,0,1,.489-.074.339.339,0,1,1-.4.548.315.315,0,0,1-.089-.474" transform="translate(-47.973 -159.32)" fill="#fff"/>
      <path id="Tracciato_1256" data-name="Tracciato 1256" d="M41.65,176.366a.346.346,0,1,1-.015.489.336.336,0,0,1,.015-.489" transform="translate(-35.381 -150.147)" fill="#fff"/>
      <path id="Tracciato_1257" data-name="Tracciato 1257" d="M30.283,164.379a.343.343,0,1,1-.1.474.339.339,0,0,1,.1-.474" transform="translate(-25.659 -139.969)" fill="#fff"/>
      <path id="Tracciato_1258" data-name="Tracciato 1258" d="M21.446,150.936a.353.353,0,0,1,.459.178.339.339,0,0,1-.622.267.315.315,0,0,1,.163-.445" transform="translate(-18.097 -128.541)" fill="#fff"/>
      <path id="Tracciato_1259" data-name="Tracciato 1259" d="M14.441,134.846a.349.349,0,1,1-.267.415.375.375,0,0,1,.267-.415" transform="translate(-12.069 -114.852)" fill="#fff"/>
      <path id="Tracciato_1260" data-name="Tracciato 1260" d="M10.236,114.5a.341.341,0,1,1-.341.341.327.327,0,0,1,.341-.341" transform="translate(-8.427 -97.53)" fill="#fff"/>
      <path id="Tracciato_1261" data-name="Tracciato 1261" d="M10.147,96.45a.34.34,0,1,1-.4.267.332.332,0,0,1,.4-.267" transform="translate(-8.294 -82.148)" fill="#fff"/>
      <path id="Tracciato_1262" data-name="Tracciato 1262" d="M13.794,77.649a.343.343,0,1,1-.445.193.333.333,0,0,1,.445-.193" transform="translate(-11.349 -66.118)" fill="#fff"/>
      <path id="Tracciato_1263" data-name="Tracciato 1263" d="M20.989,60.075a.341.341,0,1,1-.474.089.351.351,0,0,1,.474-.089" transform="translate(-17.417 -51.123)" fill="#fff"/>
      <path id="Tracciato_1264" data-name="Tracciato 1264" d="M32.539,43.214a.346.346,0,1,1-.489-.015.364.364,0,0,1,.489.015" transform="translate(-27.204 -36.722)" fill="#fff"/>
      <path id="Tracciato_1265" data-name="Tracciato 1265" d="M46.257,30.083a.343.343,0,1,1-.474-.1.339.339,0,0,1,.474.1" transform="translate(-38.861 -25.488)" fill="#fff"/>
      <path id="Tracciato_1266" data-name="Tracciato 1266" d="M61.187,20.442a.343.343,0,1,1-.445-.193.338.338,0,0,1,.445.193" transform="translate(-51.553 -17.226)" fill="#fff"/>
      <path id="Tracciato_1267" data-name="Tracciato 1267" d="M78.556,13.458a.346.346,0,1,1-.415-.282.368.368,0,0,1,.415.282" transform="translate(-66.328 -11.22)" fill="#fff"/>
      <path id="Tracciato_1268" data-name="Tracciato 1268" d="M89.013,84.216a1.492,1.492,0,0,0-1.571-1.467,1.67,1.67,0,0,0-1.719,1.467Zm1.912,2.846A4.083,4.083,0,0,1,87.5,88.84a3.465,3.465,0,0,1-3.6-3.75,3.383,3.383,0,0,1,3.5-3.69,3.2,3.2,0,0,1,2.772,1.319,5.23,5.23,0,0,1,.711,2.742H85.693a1.891,1.891,0,0,0,2,1.734,2.028,2.028,0,0,0,1.823-.963Z" transform="translate(-71.465 -69.335)" fill="#fff"/>
      <path id="Tracciato_1269" data-name="Tracciato 1269" d="M141.616,81.853v.993a2.161,2.161,0,0,1,2.253-1.156v1.734a2.6,2.6,0,0,0-1.512.415c-.711.548-.726,1.26-.726,2.431v2.594H140v-7.01Z" transform="translate(-119.25 -69.581)" fill="#fff"/>
      <path id="Tracciato_1270" data-name="Tracciato 1270" d="M172.954,84.1a1.657,1.657,0,0,0-1.586-1.2c-.963,0-1.734.771-1.734,2.179,0,1.26.667,2.194,1.764,2.194a1.8,1.8,0,0,0,1.69-1.378l1.452.756a3.332,3.332,0,0,1-3.157,2.194,3.486,3.486,0,0,1-3.483-3.72,3.549,3.549,0,0,1,3.542-3.72,3.265,3.265,0,0,1,3.038,2Z" transform="translate(-143.015 -69.335)" fill="#fff"/>
    </g>
  </g>
</svg>
