<svg id="LOGO_Sapienza" xmlns="http://www.w3.org/2000/svg" width="137.823" height="40" viewBox="0 0 137.823 40">
  <g id="Raggruppa_517" data-name="Raggruppa 517">
    <g id="Raggruppa_516" data-name="Raggruppa 516" transform="translate(47.163 5.962)">
      <path id="Tracciato_10" data-name="Tracciato 10" d="M101.711,24.33c0,3.08-2.84,4.892-5.868,4.892a10.1,10.1,0,0,1-4.813-1.274l.35-.7a9.255,9.255,0,0,0,4.464,1.441c2.391,0,4.636-1.373,4.636-3.821,0-1.582-1.2-2.229-2.725-2.877-1.242-.522-2.647-1.164-3.931-1.785a4.062,4.062,0,0,1-2.569-4.03c-.042-2.261,1.462-4.751,5.628-4.751a22.278,22.278,0,0,1,3.748.439c.052.955.073,1.937.073,2.694,0,.318,0,.371-.172.371-.146,0-.219-.052-.418-1.222-.172-.955-1.436-1.738-3.409-1.738-1.9,0-4.338,1.274-4.338,3.6C92.377,19.8,101.711,18.463,101.711,24.33Zm9.261-1.66H106.29L108.728,17Zm4.239,6.134-5.643-13.673a.268.268,0,0,0-.251-.172h-1.624l.271.564a.916.916,0,0,1,.047.908l-5.419,12.545,1.185-.172,2.245-5.5h5.226l2.318,5.727Zm10.462-10.07c0,2.522-1.869,4.255-4.709,4.255-.616,0-1.43-.439-1.43-.684,0-.047.073-.193.146-.193a4.091,4.091,0,0,0,1.159.292,2.866,2.866,0,0,0,3.205-3.205c0-2.245-.981-3.5-4.265-3.5-.59,0-.689.12-.689.752V28.815l-1.629.193V16.792c0-.971-.047-1.242-1.185-1.295-.444-.021-.47-.193-.47-.313a.214.214,0,0,1,.245-.24,5.966,5.966,0,0,1,.84.12,12.014,12.014,0,0,0,1.728.12c.835,0,2.146-.1,2.981-.1C123.481,15.08,125.674,16.416,125.674,18.734Zm6-3.477c0,.125-.2.318-.841.418-.491.073-.543.611-.543,1.075v12.08l-1.624.146V16.75c0-.486-.078-1-.491-1.075-.814-.146-.94-.292-.94-.418,0-.146.047-.219.292-.193.6.052,1.535.1,2,.1s1.258-.047,1.853-.1C131.62,15.038,131.672,15.111,131.672,15.257Zm9.512,6.458.016.543h-4.333V27.27c0,.8.026.976.642,1.075a10.422,10.422,0,0,0,1.6.12,17.905,17.905,0,0,0,2.344-.12c.345-.073.689.047.84-.856.172-.929.345-.976.465-.976.146,0,.146.047.146.292,0,.512-.026,1.128-.052,1.759-.026.491-.12.512-.564.491-.642-.026-1.754-.073-2.642-.1-.757-.021-2.417-.047-3.054-.047L135.238,29V16.776c0-.976-.078-1.248-1.211-1.295-.444-.021-.444-.172-.444-.292a.236.236,0,0,1,.245-.266,6.178,6.178,0,0,1,.841.12,10.583,10.583,0,0,0,1.624.12c.642,0,2.49-.021,3.258-.047.887-.026,1.41-.052,2.046-.073.444-.026.538-.026.564.465.026.637.052,1.274.052,1.785,0,.245,0,.292-.146.292-.125,0-.3-.052-.47-.976-.146-.9-.491-.809-.835-.882a4.651,4.651,0,0,0-.794-.052h-2.589c-.371,0-.517.1-.517.345v5.7h4.323Zm16.962-6.557c0,.125-.026.3-.47.318-1.133.047-1.185.318-1.185,1.295V28.8l-.955.193-8.828-12.033h-.026V28.773l-.762.219V16.776c0-.976-.047-1.248-1.185-1.295-.449-.021-.449-.193-.449-.318,0-.167.078-.266.224-.24.84.1,2.417.146,3.033.193.047.073.125.146.2.245L155.7,26.413V16.776c0-.976-.047-1.248-1.185-1.295-.444-.021-.47-.193-.47-.318a.219.219,0,0,1,.245-.24c.35,0,1.477.193,1.9.193.4,0,1.383-.193,1.7-.193A.217.217,0,0,1,158.146,15.158Zm.637,13.443c-.125,0-.172-.047-.172-.146a.244.244,0,0,1,.073-.219l8.468-12.409H160.6a2.321,2.321,0,0,0-1.336.512.135.135,0,0,1-.1-.172l.2-.929c.026-.12.078-.219.172-.219a6.756,6.756,0,0,0,1.921.146h7.5l.125.444-8.2,12.023c1.483-.01,6.145.157,8.186.36l4.97-11.5a.916.916,0,0,0-.047-.908l-.271-.564h1.624a.26.26,0,0,1,.251.172l5.643,13.667-1.65.219-2.574-6.353-2.25-5.675-2.443,5.67-2.516,6.139C167.611,28.523,160,28.178,158.783,28.6Zm12.895-5.288v-.626h5.79v.626Z" transform="translate(-90.67 -11.42)" fill="#fff"/>
      <g id="Raggruppa_513" data-name="Raggruppa 513" transform="translate(52.931 22.234)">
        <path id="Tracciato_11" data-name="Tracciato 11" d="M194.225,59.69c-.261,0-.809-.125-1.248-.1l-.6.037V54.741c0-.371,0-.449-.418-.47-.193-.01-.235-.052-.235-.125,0-.089.047-.136.146-.136a2.021,2.021,0,0,1,.345.047,3.9,3.9,0,0,0,.642.052c.193,0,.392-.01.585-.021.245-.01.517-.021.94-.021a2.682,2.682,0,0,1,2.892,2.694A2.805,2.805,0,0,1,194.225,59.69Zm-.057-5.341h-.726c-.219,0-.318.089-.318.339v4.276c0,.3.01.324.214.381a3.33,3.33,0,0,0,.955.1c1.551,0,2.156-1.086,2.156-2.569C196.455,55.576,196.089,54.349,194.168,54.349Z" transform="translate(-191.73 -54.01)" fill="#fff"/>
        <path id="Tracciato_12" data-name="Tracciato 12" d="M205.963,54.4c-.177.026-.177.224-.177.381v4.829l-.747.057V54.782c0-.167-.01-.355-.157-.381-.313-.047-.412-.063-.412-.157s.042-.136.167-.125c.235.021.606.042.794.042s.5-.021.736-.042c.125-.01.162.042.162.125S206.2,54.364,205.963,54.4Z" transform="translate(-197.819 -54.061)" fill="#fff"/>
      </g>
      <g id="Raggruppa_514" data-name="Raggruppa 514" transform="translate(64.359 20.841)">
        <path id="Tracciato_13" data-name="Tracciato 13" d="M219.2,58.471a.915.915,0,0,1-.459.026,1.058,1.058,0,0,1-.851-.517l-.418-.626-1.326-2.14a2.4,2.4,0,0,1-.668.057h-.261v2.986l-.783.11V52.2c0-.47-.005-.569-.543-.6-.224-.01-.271-.021-.271-.115,0-.131.078-.146.162-.146a3.005,3.005,0,0,1,.433.063,8.547,8.547,0,0,0,.9.068c.439,0,.887-.057,1.326-.057a1.646,1.646,0,0,1,1.817,1.6,2.247,2.247,0,0,1-1.357,2.015l1.211,1.984a3.754,3.754,0,0,0,1.075,1.316c.073.052.078.11.021.157v-.016Zm-3.3-6.813h-.428c-.167,0-.251.131-.251.334v3a2.519,2.519,0,0,0,.418.026,1.635,1.635,0,0,0,1.78-1.864C217.415,52.243,217.055,51.658,215.9,51.658Z" transform="translate(-213.62 -51.34)" fill="#fff"/>
        <path id="Tracciato_14" data-name="Tracciato 14" d="M228.408,59.685a2.786,2.786,0,0,1-2.908-2.84A2.868,2.868,0,0,1,228.408,54a2.843,2.843,0,1,1,0,5.685Zm0-5.409c-1.175,0-2.088.856-2.088,2.558,0,1.493.7,2.574,2.088,2.574,1.493,0,2.088-1.081,2.088-2.574C230.5,55.1,229.483,54.277,228.408,54.277Z" transform="translate(-219.298 -52.611)" fill="#fff"/>
        <path id="Tracciato_15" data-name="Tracciato 15" d="M245.724,54.263c-.475.021-.47.2-.418.642.057.517.559,4.641.559,4.641l-.83.078-.491-4.537L242.717,59.3l-.339.057-2.062-4.286-.35,4.479-.7.084c.428-5.612.381-4.683.4-4.907.037-.355,0-.444-.418-.459-.2-.01-.235-.089-.235-.157,0-.11.078-.12.157-.11.235.026.783.047.987.073.136.01.193.037.292.235l2.14,4.422,1.874-4.4a.348.348,0,0,1,.334-.251c.214-.021.752-.031.976-.063.089-.01.193.021.193.12C245.959,54.2,245.927,54.253,245.724,54.263Z" transform="translate(-225.755 -52.608)" fill="#fff"/>
        <path id="Tracciato_16" data-name="Tracciato 16" d="M258.541,59.652l-.914-2.245h-2.015l-.877,2.156-.585.078,2.177-5a.3.3,0,0,0-.021-.308l-.136-.3h.72a.172.172,0,0,1,.146.1l2.255,5.419Zm-1.885-4.683-.887,2.146h1.707Z" transform="translate(-232.991 -52.63)" fill="#fff"/>
      </g>
      <g id="Raggruppa_515" data-name="Raggruppa 515" transform="translate(0 20.559)">
        <path id="Tracciato_17" data-name="Tracciato 17" d="M96.7,51.739c-.224.037-.224.324-.235.5,0,.068-.052,2.516-.193,3.66-.11.809-.459,2.595-2.448,2.595a2.611,2.611,0,0,1-2.657-2.616c-.078-.564-.11-2.287-.11-3.174,0-.282-.021-.47-.021-.47-.01-.214-.01-.47-.193-.5-.449-.078-.506-.089-.506-.157,0-.115.073-.125.193-.115.292.021.694.037.924.037s.559-.021.851-.037c.131-.01.193,0,.193.115,0,.068-.089.1-.449.157-.2.037-.245.256-.235.5,0,0,.026,2.245.084,3.346.1,1.718.835,2.605,1.916,2.605,1.336,0,1.952-1.091,2.052-2.527.078-1.133.078-2.167.078-3.211v-.219c0-.214-.01-.47-.193-.5-.449-.078-.506-.089-.506-.157,0-.115.068-.125.193-.115.292.021.59.037.83.037s.392-.021.684-.037c.131-.01.193,0,.193.115C97.153,51.656,97.064,51.682,96.7,51.739Z" transform="translate(-90.34 -51.113)" fill="#fff"/>
        <path id="Tracciato_18" data-name="Tracciato 18" d="M110.351,54.27c-.418.021-.418.1-.418.47v4.8l-.449.094-3.435-4.646v4.542l-.4.115V54.74c0-.371,0-.449-.423-.47-.2-.01-.224-.052-.224-.115,0-.089.037-.157.146-.146.329.037.809.057,1.075.084l3.3,4.516V54.745c0-.371,0-.449-.418-.47-.193-.01-.235-.042-.235-.115a.132.132,0,0,1,.146-.146c.136,0,.585.084.752.084s.543-.084.673-.084a.132.132,0,0,1,.146.146C110.586,54.228,110.544,54.26,110.351,54.27Z" transform="translate(-97.347 -52.333)" fill="#fff"/>
        <path id="Tracciato_19" data-name="Tracciato 19" d="M119.053,54.4c-.172.026-.172.224-.172.381v4.829l-.747.057V54.782c0-.167-.01-.355-.157-.381-.308-.047-.407-.063-.407-.157s.037-.136.167-.125c.235.021.606.042.794.042s.5-.021.731-.042c.125-.01.167.042.167.125S119.3,54.364,119.053,54.4Z" transform="translate(-103.354 -52.386)" fill="#fff"/>
        <path id="Tracciato_20" data-name="Tracciato 20" d="M127.7,54.312c-.178.026-.271.172-.339.339l-1.953,4.913-.522.057-1.963-4.871a2.134,2.134,0,0,0-.157-.371c-.042-.068-.1-.094-.224-.11-.193-.01-.235-.042-.235-.115a.135.135,0,0,1,.157-.146c.235.026.626.037.83.057s.271.172.329.339l1.681,4.443,1.671-4.208a.217.217,0,0,0-.162-.292c-.371-.063-.418-.12-.418-.167,0-.078.026-.125.162-.115.235.021.48.042.668.042s.339-.021.574-.042c.136-.01.167.042.167.115C127.964,54.239,127.906,54.27,127.7,54.312Z" transform="translate(-105.62 -52.333)" fill="#fff"/>
        <path id="Tracciato_21" data-name="Tracciato 21" d="M137.214,59.413c-.01.224-.078.245-.277.235a20.334,20.334,0,0,0-2.255-.057l-.585.037v-4.9c0-.371-.01-.449-.433-.47-.193-.01-.225-.042-.225-.115,0-.089.052-.136.146-.136a1.832,1.832,0,0,1,.339.047,3.83,3.83,0,0,0,.637.052c.7,0,1.394-.021,2.1-.052.193-.01.261,0,.271.224.01.251.021.506.021.7,0,.146-.031.162-.1.162-.167,0-.131-.6-.292-.7a1.6,1.6,0,0,0-.564-.1h-1c-.146,0-.157.026-.157.084V56.7h1.044c.125,0,.4-.01.428-.172.068-.36.1-.433.188-.433.11,0,.115.068.11.167-.021.224-.042.392-.042.569s.021.35.042.574c.01.1,0,.167-.11.167-.089,0-.115-.068-.188-.428-.026-.167-.261-.188-.428-.188h-1.044v1.994c0,.313.01.35.214.381a4.044,4.044,0,0,0,.626.047,5.322,5.322,0,0,0,1.143-.089c.167-.11.125-.731.3-.731.084,0,.11.021.11.167C137.235,58.917,137.225,59.163,137.214,59.413Z" transform="translate(-110.939 -52.334)" fill="#fff"/>
        <path id="Tracciato_22" data-name="Tracciato 22" d="M147.17,59.737a.93.93,0,0,1-.82-.418l-.339-.5-1.1-1.681a1.5,1.5,0,0,1-.412.037h-.2v2.375l-.741.084v-4.9c0-.36-.01-.449-.428-.47-.193-.01-.225-.052-.225-.115a.132.132,0,0,1,.146-.146,1.9,1.9,0,0,1,.339.047,6.387,6.387,0,0,0,.809.052c.35,0,.71-.042,1.065-.042a1.365,1.365,0,0,1,1.514,1.279A1.818,1.818,0,0,1,145.6,56.97c1.248,1.864.976,1.457,1.457,2.187a2.141,2.141,0,0,0,.334.371c.068.057.136.068.136.146C147.52,59.737,147.306,59.737,147.17,59.737Zm-2.349-5.414h-.282c-.193,0-.256.094-.256.23v2.354a2.926,2.926,0,0,0,.334.021c1.216,0,1.352-.83,1.352-1.446C145.975,54.762,145.74,54.323,144.821,54.323Z" transform="translate(-115.461 -52.334)" fill="#fff"/>
        <path id="Tracciato_23" data-name="Tracciato 23" d="M154.946,59.69a2.808,2.808,0,0,1-1.436-.418l.146-.339a2.417,2.417,0,0,0,1.289.486c.741,0,1.316-.371,1.316-1.1,0-.392-.339-.616-.642-.794a7.256,7.256,0,0,1-1.43-.867,1.567,1.567,0,0,1-.579-1.269,1.532,1.532,0,0,1,1.707-1.378,6.108,6.108,0,0,1,1.138.146c.021.339.021.642.021.877,0,.1,0,.167-.1.167s-.125-.063-.188-.418c-.047-.261-.329-.475-.924-.475-.647,0-1.2.3-1.2.992a.67.67,0,0,0,.282.491,3.954,3.954,0,0,0,.945.548,3.4,3.4,0,0,1,1.034.663,1.6,1.6,0,0,1,.418,1.112A1.618,1.618,0,0,1,154.946,59.69Z" transform="translate(-120.532 -52.334)" fill="#fff"/>
        <path id="Tracciato_24" data-name="Tracciato 24" d="M163.238,54.4c-.172.026-.172.224-.172.381v4.829l-.747.057V54.782c0-.167-.01-.355-.157-.381-.313-.047-.412-.063-.412-.157s.037-.136.167-.125c.235.021.606.042.794.042s.5-.021.731-.042c.125-.01.167.042.167.125S163.483,54.364,163.238,54.4Z" transform="translate(-124.47 -52.386)" fill="#fff"/>
        <path id="Tracciato_25" data-name="Tracciato 25" d="M171.55,54.495l-.313-.057h-1.749v5.137l-.747.078V54.437c-.454-.01-1.373,0-1.373,0-.412,0-.459.089-.5.3-.021.094,0,.428-.146.428H166.7c-.1,0-.115-.057-.115-.162,0-.193,0-.449.005-.7.01-.224.078-.24.277-.224.256.01.47.021.82.031,1.044.037,2.109.021,3.153.021.271,0,.585-.1.72-.1a.1.1,0,0,1,.11.1C171.675,54.26,171.628,54.281,171.55,54.495Z" transform="translate(-126.783 -52.344)" fill="#fff"/>
        <path id="Tracciato_26" data-name="Tracciato 26" d="M179.2,52.126h.277l-1.149-1.149c-.125-.125-.209-.177-.3-.177a.276.276,0,0,0-.277.292c0,.115.052.183.339.355Zm-.386,1.295-.893,2.146h1.712Zm1.879,4.683-.914-2.245h-2.01l-.882,2.156-.585.078,2.177-5a.326.326,0,0,0-.021-.308l-.136-.3h.726a.179.179,0,0,1,.146.1l2.255,5.419Z" transform="translate(-131.424 -50.8)" fill="#fff" fill-rule="evenodd"/>
      </g>
    </g>
    <path id="Tracciato_27" data-name="Tracciato 27" d="M17,5.884c0,.653.005,2.323,0,2.929a.856.856,0,0,0,.23.606,1.079,1.079,0,0,0,.209.167.423.423,0,0,0,.167.057.824.824,0,0,0,.209.01.857.857,0,0,0,.6-.287c.4-.428,1.237-1.326,1.592-1.712.1-.115-.005-.131-.1-.131a3.9,3.9,0,0,0-2.057,1.2c-.068-.726-.177-2.334-.71-2.944C17.076,5.717,17,5.722,17,5.884Zm-.673-.1C15.787,6.4,15.693,8,15.63,8.729a3.918,3.918,0,0,0-2.057-1.2c-.089-.005-.2.016-.1.131.36.386,1.2,1.284,1.592,1.712a.831.831,0,0,0,.579.287.908.908,0,0,0,.224-.01.454.454,0,0,0,.167-.057,1.024,1.024,0,0,0,.193-.151.862.862,0,0,0,.24-.621V5.889C16.476,5.722,16.382,5.717,16.325,5.784Zm-6.233,15a1.05,1.05,0,0,0-.846-1.128c-.073-.005-.141-.01-.209-.021a17.834,17.834,0,0,1-6.6-1.963c-.047-.026-.089.021-.068.073a3.654,3.654,0,0,0,1.065.934,14.888,14.888,0,0,0,4.558,1.838A14.241,14.241,0,0,0,10.091,20.783ZM11.8,23.409a1.5,1.5,0,0,0-.11-.715.9.9,0,0,0-.329-.47,1.587,1.587,0,0,0-.856-.345,12.819,12.819,0,0,1-6.646-2.37c-.1-.073-.136-.026-.057.073a7.423,7.423,0,0,0,1.154,1.242,10.334,10.334,0,0,0,4.584,1.994,10.216,10.216,0,0,0,1.055.136c.078,0,.131,0,.146.021a.227.227,0,0,1-.005.157c-.031.345-.047.689-.047,1.039a9.873,9.873,0,0,0,1.19,4.772,7.387,7.387,0,0,0,1.044,1.331c.084.094.136.063.084-.042A12.11,12.11,0,0,1,11.8,23.409Zm1.994,1.817c.005-.068.01-.141.016-.209A1.045,1.045,0,0,0,12.848,24h-.021a14.433,14.433,0,0,0-.1,2.073,14.11,14.11,0,0,0,1.07,4.719,3.591,3.591,0,0,0,.752,1.19c.047.031.1,0,.084-.052A16.887,16.887,0,0,1,13.793,25.226Zm2.229.543c0-.005.031-.266.031-.266a2.8,2.8,0,0,0-.679-2.261c-.856-.976-2.287-1.055-2.856-1.681s-.345-2.193-1.211-3.1a3.069,3.069,0,0,0-2.172-.95L8.9,17.5a19.058,19.058,0,0,1-7.074-1.43c-.084-.031-.177.042-.11.136a3.546,3.546,0,0,0,1.467,1.034,22.184,22.184,0,0,0,5.9,1.305c1.446.073,2.078,1.347,2.407,2.459a2.417,2.417,0,0,0,1.357,1.639c1.06.517,2.334,1.316,2.151,2.725a19.132,19.132,0,0,0,.157,5.915,3.44,3.44,0,0,0,.747,1.6.088.088,0,0,0,.151-.084A17.819,17.819,0,0,1,16.022,25.769Zm-6.813-10a11.228,11.228,0,0,0-1.524.459.115.115,0,0,0,.005.209,4.427,4.427,0,0,0,2.156.193c.579-.23.454-1.18.151-1.587A12.373,12.373,0,0,1,7.8,8.473c-.005-.12-.063-.12-.089,0a7.349,7.349,0,0,0-.266,1.655A10.156,10.156,0,0,0,9.209,15.766Zm.318-3.508a15.249,15.249,0,0,0,1.07,1.775,1.042,1.042,0,0,0,.365-1.352,2.065,2.065,0,0,1-.115-.177,17.078,17.078,0,0,1-2.48-6.275c-.01-.052-.073-.057-.1-.005a3.547,3.547,0,0,0-.084,1.4A14.755,14.755,0,0,0,9.528,12.258Zm2.208-.392c.825,1.149.209,2.433-.454,3.378-.814,1.149.188,2.61.136,1.759-.068-1.253,1.519-1.994,1.733-3.482a3.019,3.019,0,0,0-.579-2.255l-.136-.188a18.288,18.288,0,0,1-3.19-6.312c-.026-.078-.141-.11-.172,0a3.506,3.506,0,0,0,.084,1.77A21.3,21.3,0,0,0,11.736,11.866ZM23.482,15.03c-.3.407-.428,1.363.151,1.587a4.427,4.427,0,0,0,2.156-.193.115.115,0,0,0,0-.209,12.032,12.032,0,0,0-1.524-.459,10.21,10.21,0,0,0,1.77-5.643,7.656,7.656,0,0,0-.266-1.655c-.026-.12-.084-.12-.089,0A12.365,12.365,0,0,1,23.482,15.03Zm-.966-2.349a1.037,1.037,0,0,0,.35,1.342,12.7,12.7,0,0,0,1.086-1.765,14.476,14.476,0,0,0,1.342-4.636,3.558,3.558,0,0,0-.084-1.4.048.048,0,0,0-.094.005A17.087,17.087,0,0,1,22.631,12.5ZM22.057,17c-.047.851.95-.606.136-1.759-.663-.945-1.274-2.224-.454-3.378a20.955,20.955,0,0,0,2.574-5.335,3.446,3.446,0,0,0,.084-1.77c-.031-.11-.146-.078-.172,0a18.334,18.334,0,0,1-3.19,6.312l-.136.188a3.007,3.007,0,0,0-.579,2.255C20.538,15,22.125,15.745,22.057,17ZM16.669,39.41C7.8,39.41.579,30.7.579,20S7.794.59,16.669.59,32.759,9.3,32.759,20,25.544,39.41,16.669,39.41Zm0-39.41C7.476,0,0,8.974,0,20S7.476,40,16.669,40s16.669-8.974,16.669-20S25.863,0,16.669,0ZM13.464,19.869a1.093,1.093,0,0,1-.856-.517,1.2,1.2,0,0,0,1.107,1.577,3.236,3.236,0,0,1-.251-.981Zm.021-.757c.021-.3.026-.679.037-.966a1.912,1.912,0,0,1-1.242-.741C11.851,18.094,12.341,18.951,13.485,19.113Zm6.463.814a3.167,3.167,0,0,1-.256.987,1.184,1.184,0,0,0,1.075-1.582,1.028,1.028,0,0,1-.825.517v.078Zm1.185-2.542a1.9,1.9,0,0,1-1.242.741c.01.287.016.663.037.966C21.075,18.935,21.566,18.074,21.133,17.384Zm-3.592-1.723c2.323,1.336,3.174.1,3.174.1s.851,1.013-.611,1.41a3.125,3.125,0,0,1-2.84-.71C16.805,16.126,16.706,15.187,17.541,15.662Zm1.248-1.211a3.375,3.375,0,0,0,1.19.559s-.031.929-1.363.418c-.465-.177-1.89-.981-1.65-1.316C17.369,13.553,18.068,14.007,18.789,14.451Zm-2.918,1.211c-2.323,1.336-3.138.1-3.138.1s-.882,1.013.579,1.41a3.106,3.106,0,0,0,2.835-.71C16.612,16.126,16.706,15.187,15.871,15.662Zm-1.242-1.211a3.5,3.5,0,0,1-1.154.559s-.005.929,1.326.418c.47-.177,1.89-.981,1.65-1.316C16.043,13.553,15.348,14.007,14.628,14.451Zm4.761,5.09c-.037-.4-.089-1.112-.1-1.488A3.557,3.557,0,0,1,16.711,16.7a3.557,3.557,0,0,1-2.574,1.357c-.016.376-.068,1.091-.1,1.488a2.677,2.677,0,0,0,.663,2.015,2.914,2.914,0,0,0,.9.71c.031.01.063.026.094.037l.162.073a1.95,1.95,0,0,1,.235.188,1.206,1.206,0,0,0,1.242,0,1.655,1.655,0,0,1,.24-.188l.162-.073c.037-.016.068-.026.1-.037a2.763,2.763,0,0,0,.9-.71A2.686,2.686,0,0,0,19.389,19.541Zm-1.4-.3c-.621,0-.757-.188-.757-.188a.776.776,0,0,1,.752-.522.913.913,0,0,1,.814.433C18.784,19.034,18.836,19.243,17.985,19.243Zm-1.263,2.386a1.1,1.1,0,0,1-.95-.559,4.85,4.85,0,0,1,1.9,0A1.1,1.1,0,0,1,16.721,21.629Zm-1.295-2.386c-.846,0-.794-.209-.814-.277a.917.917,0,0,1,.82-.433.783.783,0,0,1,.752.522S16.053,19.243,15.427,19.243Zm1.295.8c.271,0,.491.11.491.2s-.219.2-.491.2-.491-.115-.491-.2S16.45,20.047,16.721,20.047Zm8.771.475a15.022,15.022,0,0,0,4.558-1.838,3.732,3.732,0,0,0,1.065-.934.051.051,0,0,0-.068-.073,17.737,17.737,0,0,1-6.6,1.963c-.068.01-.141.016-.209.021a1.041,1.041,0,0,0-.846,1.128A15.907,15.907,0,0,0,25.492,20.522Zm-5.012,9.71c-.052.11,0,.136.084.042a7.209,7.209,0,0,0,1.044-1.331,9.873,9.873,0,0,0,1.19-4.772c0-.35-.021-.694-.047-1.039a.227.227,0,0,1-.005-.157c.016-.021.063-.021.146-.021.355-.031.7-.073,1.055-.136a10.308,10.308,0,0,0,4.584-1.994,7.423,7.423,0,0,0,1.154-1.242c.078-.1.042-.141-.057-.073a12.819,12.819,0,0,1-6.646,2.37,1.587,1.587,0,0,0-.856.345.842.842,0,0,0-.329.47,1.493,1.493,0,0,0-.11.715A12.154,12.154,0,0,1,20.48,30.232Zm-1.629,1.7c-.016.052.037.084.084.052a3.507,3.507,0,0,0,.752-1.19,14.044,14.044,0,0,0,1.07-4.719,14.471,14.471,0,0,0-.1-2.073h-.021a1.049,1.049,0,0,0-.961,1.018c.005.068.01.136.016.209A16.793,16.793,0,0,1,18.851,31.929Zm-1.43.872a.091.091,0,0,0,.157.084,3.421,3.421,0,0,0,.741-1.6,19.031,19.031,0,0,0,.162-5.915c-.188-1.4,1.091-2.208,2.151-2.725a2.79,2.79,0,0,0,.882-.679,2.666,2.666,0,0,0,.475-.961c.329-1.112.966-2.386,2.407-2.459a22.144,22.144,0,0,0,5.9-1.305,3.546,3.546,0,0,0,1.467-1.034c.063-.094-.031-.167-.115-.136a18.954,18.954,0,0,1-7.074,1.43l-.235.01a3.091,3.091,0,0,0-2.172.95c-.867.9-.642,2.475-1.206,3.1s-2,.7-2.856,1.681a2.823,2.823,0,0,0-.679,2.261s.031.261.031.266A17.723,17.723,0,0,1,17.421,32.8Zm9.966-1.284A.1.1,0,0,0,27.3,31.5a.911.911,0,0,1-.292.016c-.412-.057-.794-.084-1.211-.136a1,1,0,0,0-.235-1.013.725.725,0,0,0-1.06.172c-.12.136-.23.292-.345.433a3.164,3.164,0,0,1-.287.3,1.1,1.1,0,0,0-.141.125.109.109,0,0,0-.005.167c.063.057.11.016.183-.063.12-.125.141-.1.251-.005L26,33.187l.277-.412L25.435,32l.037-.042a.69.69,0,0,0,.11-.151l.929.1c.308.037.538.115.778-.167C27.356,31.684,27.418,31.548,27.387,31.517Zm-2.109-.7a.615.615,0,0,1,.089.971c-.037.042-.057.063-.084.089l-.872-.8c-.031-.026-.047-.057,0-.11l.094-.11A.46.46,0,0,1,25.278,30.812ZM3.195,26.254a1.523,1.523,0,0,1-.031-.856l.292.026a1.332,1.332,0,0,0-.042.757c.12.36.371.548.679.444.151-.057.2-.23.235-.418a4.371,4.371,0,0,1,.172-.872.824.824,0,0,1,.527-.527c.423-.151.83.172,1,.658a4.351,4.351,0,0,1,.131.647c-.193.078-.334.131-.449.172-.057.021-.125.042-.151-.052-.021-.057-.01-.11.183-.224.084-.047.146-.193.047-.48-.1-.308-.313-.506-.606-.4-.2.073-.23.559-.251.747a1.88,1.88,0,0,1-.146.647.828.828,0,0,1-.48.423A.9.9,0,0,1,3.195,26.254Zm4.1,2.6c-.026.005-.052,0-.151.01l-.057-.2-.371-.778-2.3,1.164-.256-.418L6.5,27.445c-.1-.23-.3-.632-.3-.632-.115-.23-.141-.146-.3-.1-.073.021-.151.031-.177-.026-.037-.084-.005-.115.073-.157s.2-.1.318-.151c.136-.063.178,0,.219.1.052.12.1.224.172.4.219.506.47,1.008.7,1.5a1.657,1.657,0,0,0,.167.256c.016.026.031.047.042.063a.1.1,0,0,1-.042.141A.121.121,0,0,1,7.293,28.854Zm1.754,2.532a.184.184,0,0,0-.2-.026l-2.589.731-.23-.245c.559-1,.919-1.665,1.394-2.48.037-.063.068-.094.026-.167-.084-.12-.078-.162-.026-.2s.12-.031.167.042c.057.11.177.277.235.371a.251.251,0,0,1-.031.3l-1.19,2L8.713,31.1c.136-.042-.136-.292-.026-.376.052-.042.1-.016.157.057.063.1.131.209.188.287s.115.136.193.224c.063.068.057.136.005.177S9.157,31.49,9.047,31.386Zm1.817,3.148a1.474,1.474,0,0,0-.36-2.093c-.172-.136-.287-.219-.386-.3-.084-.057-.167-.12-.245-.183a1.636,1.636,0,0,1-.235-.224,1.076,1.076,0,0,0-.131-.136.109.109,0,0,0-.167.016c-.052.068.01.115.084.177.131.115.1.136.016.256L7.9,34.085a3.118,3.118,0,0,1,.559.444,2.521,2.521,0,0,0,.214.209A1.428,1.428,0,0,0,10.864,34.534Zm-.449-.282c-.444.585-1,.825-1.6.345a1.984,1.984,0,0,1-.35-.334c-.047-.063-.042-.073.026-.162L9.83,32.336c.057-.084.1-.084.162-.026l.292.235A1.075,1.075,0,0,1,10.415,34.252Zm2.057-.224c-.063-.021-.084.057-.11.11l-1.1,2.234-.449-.188,1.112-2.266c.073-.146.063-.12-.052-.209-.052-.042-.131-.078-.094-.146s.094-.084.177-.037c.1.063.261.162.35.2s.23.11.339.157c.084.037.11.094.073.167C12.7,34.1,12.629,34.08,12.472,34.028Zm3.263.867a.235.235,0,0,0-.172.115L13.949,37.3l-.334-.042c-.167-1.143-.292-1.853-.412-2.8-.005-.068,0-.115-.078-.141-.141-.042-.157-.078-.141-.136a.107.107,0,0,1,.157-.073c.11.047.308.1.407.136.12.042.141.141.157.251l.287,2.292,1.274-1.838c.078-.115-.282-.136-.251-.277.016-.068.073-.084.157-.057a4.09,4.09,0,0,0,.668.073c.089,0,.131.031.12.115C15.949,34.863,15.891,34.879,15.735,34.894Zm3.827-.532c-.162.078-.172.131-.115.345.068.261.632,2.391.632,2.391l-.512.136-.559-2.177-.564,2.172-.235.078L16.925,35.4l.146,2.172-.449.131-.162-2.485c-.016-.251-.057-.308-.2-.324-.125-.01-.177-.047-.188-.11-.016-.1.073-.12.12-.125.12,0,.444.01.548.005a.2.2,0,0,1,.209.11l1.321,2.015.6-2.3a.27.27,0,0,1,.188-.193c.11-.026.371-.125.486-.157.042-.01.151-.021.167.078C19.713,34.294,19.666,34.31,19.561,34.362ZM23.649,31.9a.556.556,0,0,0-.021.329l.564,2.595-.256.219c-.929-.647-1.551-1-2.307-1.545-.057-.042-.084-.078-.151-.037-.125.078-.162.068-.193.016a.114.114,0,0,1,.052-.167c.11-.057.282-.162.371-.214.115-.063.2-.01.287.052l1.859,1.3-.491-2.182c-.026-.141-.292.115-.365.005-.037-.063-.01-.11.068-.157a3.089,3.089,0,0,0,.5-.486.107.107,0,0,1,.177.01C23.759,31.673,23.717,31.772,23.649,31.9Zm4.573-3.221a.745.745,0,0,0-1.013.188.714.714,0,0,0-.355-.7.743.743,0,0,0-.992.371c-.084.136-.146.282-.235.423a3.334,3.334,0,0,1-.209.3,1.05,1.05,0,0,0-.12.146.122.122,0,0,0,.037.177c.052.031.078.021.157-.1.1-.146.125-.125.245-.047l.094.063,2.031,1.31s.172-.334.214-.4c.089-.136.172-.193.261-.339A1,1,0,0,0,28.222,28.682Zm-1.545-.042a.468.468,0,0,1,.167.731l-.089.146-.8-.522c-.063-.042-.084-.052-.052-.11l.037-.068A.5.5,0,0,1,26.677,28.64ZM28,29.126a.545.545,0,0,1,.209.783,1.794,1.794,0,0,1-.256.324c-.026.026-.026.026-.052.01l-.971-.626.078-.131C27.319,28.974,27.674,28.917,28,29.126Zm-.981-2.391c-.021.068.057.084.1.11L29.36,27.92l-.167.47L26.922,27.3c-.146-.068-.115-.063-.2.063-.037.057-.068.136-.141.1s-.084-.094-.042-.177c.057-.1.146-.277.188-.365s.1-.245.136-.355c.031-.089.089-.115.157-.084S27.063,26.578,27.022,26.735Zm3.054-.569a1.542,1.542,0,0,1-.475.7l-.214-.193a1.272,1.272,0,0,0,.47-.579c.115-.36.026-.668-.282-.773-.151-.052-.292.057-.428.188a3.845,3.845,0,0,1-.647.59.8.8,0,0,1-.731.094.869.869,0,0,1-.412-1.143,3.865,3.865,0,0,1,.271-.6c.2.057.345.1.454.141.063.021.12.047.094.141-.021.057-.057.094-.277.063-.094-.016-.23.063-.324.355-.1.308-.042.6.251.7.2.068.512-.3.632-.439a1.793,1.793,0,0,1,.5-.428.781.781,0,0,1,.626-.042A.909.909,0,0,1,30.076,26.165Z" fill="#fff" fill-rule="evenodd"/>
  </g>
</svg>
