<svg id="LOGO_Babelscape" xmlns="http://www.w3.org/2000/svg" width="143.697" height="28.495" viewBox="0 0 143.697 28.495">
  <g id="XMLID_6_" transform="translate(20.802 4.027)">
    <path id="XMLID_30_" d="M49.955,23.375c0-2.148-2.148-2.623-3.893-2.623a7.684,7.684,0,0,0-3.088.666.59.59,0,0,1-.764-.258l-.413-.8a.594.594,0,0,1,.315-.826,11.529,11.529,0,0,1,4.079-.759c3.124,0,6.015,1.322,6.015,4.42v8.3a.594.594,0,0,1-.594.594H50.105v-1.4a5.288,5.288,0,0,1-4.146,1.7c-3.17,0-5.669-1.771-5.669-4.667,0-2.37,2.024-4.471,5.643-4.471a5.923,5.923,0,0,1,4.022,1.471V23.375Zm-3.594,1.843c-2.747,0-3.671,1.322-3.671,2.6s.924,2.6,3.671,2.6,3.671-1.322,3.671-2.6S49.109,25.218,46.362,25.218Z" transform="translate(-40.29 -13.111)" fill="#fff"/>
    <path id="XMLID_27_" d="M70.724,7.8h1.064a.594.594,0,0,1,.594.594v7.425h.052a5.991,5.991,0,0,1,4.941-2.349,6.721,6.721,0,0,1,6.769,6.666,6.846,6.846,0,0,1-6.867,6.939,5.7,5.7,0,0,1-4.843-2.3h-.052v1.4a.594.594,0,0,1-.594.594H70.724a.594.594,0,0,1-.594-.594V8.394A.591.591,0,0,1,70.724,7.8Zm6.247,7.765a4.706,4.706,0,1,0,4.766,4.6A4.644,4.644,0,0,0,76.971,15.565Z" transform="translate(-54.723 -7.8)" fill="#fff"/>
    <path id="XMLID_24_" d="M114.208,29.163a.59.59,0,0,1,.062.873,7.286,7.286,0,0,1-5.421,2.349,6.7,6.7,0,0,1-7.089-6.815,6.565,6.565,0,0,1,6.717-6.79c3.836,0,6.562,2.8,6.8,7.053a.589.589,0,0,1-.594.614H104.92a.6.6,0,0,0-.568.785,4.532,4.532,0,0,0,4.476,3.062,5.261,5.261,0,0,0,3.8-1.694.591.591,0,0,1,.8-.062ZM112.019,24.6a.6.6,0,0,0,.573-.764,4.176,4.176,0,0,0-4.146-2.958,4.079,4.079,0,0,0-4.131,2.969.592.592,0,0,0,.573.754Z" transform="translate(-70.022 -13.111)" fill="#fff"/>
    <path id="XMLID_22_" d="M134.742,7.8a.594.594,0,0,1,.594.594V22.706c0,1.471.723,1.972,1.446,1.972h.676v2.1h-.924c-2.07,0-3.444-1.172-3.444-3.893V8.394a.594.594,0,0,1,.594-.594Z" transform="translate(-85.176 -7.8)" fill="#fff"/>
    <path id="XMLID_20_" d="M145.185,28.286a.588.588,0,0,1,.573.4,2.521,2.521,0,0,0,2.623,1.724c2.024,0,2.571-1.1,2.571-1.874,0-.852-.547-1.373-2.3-1.848l-2.272-.625a3.224,3.224,0,0,1-2.649-3.346c0-2.148,1.621-3.945,4.642-3.945,2.933,0,4.172,1.637,4.42,3.361a.6.6,0,0,1-.589.682h-.986a.572.572,0,0,1-.552-.465,2.1,2.1,0,0,0-2.344-1.735c-1.425,0-2.344.847-2.344,1.874,0,.723.4,1.275,1.446,1.575l3.046.873c2.05.6,2.721,1.724,2.721,3.4,0,2.649-2.323,4.043-4.719,4.043-2.747,0-4.456-1.317-4.822-3.387a.6.6,0,0,1,.589-.707h.945Z" transform="translate(-90.28 -13.106)" fill="#fff"/>
    <path id="XMLID_18_" d="M176.309,21.728a.6.6,0,0,1-.836.062,4.06,4.06,0,0,0-2.571-.9c-2.22,0-4.3,1.621-4.3,4.817a4.427,4.427,0,0,0,4.518,4.6,4.161,4.161,0,0,0,2.463-.955.587.587,0,0,1,.811.1l.6.743a.582.582,0,0,1-.062.811,6.34,6.34,0,0,1-4.084,1.394,6.583,6.583,0,0,1-6.64-6.764,6.75,6.75,0,0,1,6.666-6.841,7.4,7.4,0,0,1,4.048,1.224.6.6,0,0,1,.114.878Z" transform="translate(-101.196 -13.116)" fill="#fff"/>
    <path id="XMLID_15_" d="M200.325,23.375c0-2.148-2.148-2.623-3.893-2.623a7.684,7.684,0,0,0-3.088.666.59.59,0,0,1-.764-.258l-.413-.8a.594.594,0,0,1,.315-.826,11.529,11.529,0,0,1,4.079-.759c3.124,0,6.015,1.322,6.015,4.42v8.3a.594.594,0,0,1-.594.594h-1.508v-1.4a5.288,5.288,0,0,1-4.146,1.7c-3.17,0-5.669-1.771-5.669-4.667,0-2.37,2.024-4.471,5.643-4.471a5.923,5.923,0,0,1,4.022,1.471Zm-3.594,1.843c-2.747,0-3.671,1.322-3.671,2.6s.924,2.6,3.671,2.6,3.671-1.322,3.671-2.6S199.479,25.218,196.732,25.218Z" transform="translate(-113.022 -13.111)" fill="#fff"/>
    <path id="XMLID_12_" d="M221.094,19.079h1.064a.594.594,0,0,1,.594.594v1.456h.052a5.991,5.991,0,0,1,4.941-2.349,6.721,6.721,0,0,1,6.769,6.666,6.846,6.846,0,0,1-6.867,6.939,5.7,5.7,0,0,1-4.843-2.3h-.052v6.9a.594.594,0,0,1-.594.594h-1.064a.594.594,0,0,1-.594-.594V19.668A.589.589,0,0,1,221.094,19.079Zm6.247,1.8a4.706,4.706,0,1,0,4.766,4.6A4.64,4.64,0,0,0,227.341,20.876Z" transform="translate(-127.455 -13.111)" fill="#fff"/>
    <path id="XMLID_9_" d="M264.578,29.163a.59.59,0,0,1,.062.873,7.286,7.286,0,0,1-5.421,2.349,6.7,6.7,0,0,1-7.089-6.815,6.565,6.565,0,0,1,6.717-6.79c3.836,0,6.562,2.8,6.8,7.053a.589.589,0,0,1-.594.614H255.29a.6.6,0,0,0-.568.785,4.532,4.532,0,0,0,4.476,3.062A5.261,5.261,0,0,0,263,28.6a.591.591,0,0,1,.8-.062ZM262.389,24.6a.6.6,0,0,0,.573-.764,4.176,4.176,0,0,0-4.146-2.958,4.079,4.079,0,0,0-4.131,2.969.592.592,0,0,0,.573.754Z" transform="translate(-142.754 -13.111)" fill="#fff"/>
  </g>
  <g id="XMLID_2_" transform="translate(0 0)">
    <path id="XMLID_5_" d="M.94,0H9.412c2.179,0,5.488,1.188,5.793,4.017a4.852,4.852,0,0,1-.361,2.437,4.889,4.889,0,0,1-2.422,2.427,38.3,38.3,0,0,0-6.629,2.943C4.389,12.691,0,16.171,0,20.007V.883C0,.258.176,0,.94,0Z" transform="translate(0 0)" fill="#fff"/>
    <path id="XMLID_3_" d="M3.909,25.4a25.472,25.472,0,0,1,2.623-1.977c2.933-1.921,5.881-2.969,7.672-2.752a4.837,4.837,0,0,1,3.32,2.308,6.067,6.067,0,0,1,.842,2.8,6.338,6.338,0,0,1-2.138,5.4A7.828,7.828,0,0,1,11.2,32.957L.889,32.952a.7.7,0,0,1-.749-.728A11.089,11.089,0,0,1,3.909,25.4Z" transform="translate(-0.068 -9.986)" fill="#fff"/>
  </g>
</svg>
