<svg xmlns="http://www.w3.org/2000/svg" width="232.856" height="62.299" viewBox="0 0 232.856 62.299">
  <g id="Raggruppa_1137" data-name="Raggruppa 1137" transform="translate(-1109.549 -753.893)">
    <g id="Raggruppa_1133" data-name="Raggruppa 1133" transform="translate(1152.355 770.787)">
      <path id="Tracciato_1294" data-name="Tracciato 1294" d="M1163.438,787.257l-7.409-1.338c-3.777-.693-5.736-1.613-5.736-5.844v-1.159c0-4.924,2.665-6.955,8.627-6.955s8.688,1.972,8.688,6.608v1.386a1.052,1.052,0,0,0,1.1,1.159h2.605c.705,0,1.052-.466,1.052-1.159V778.57c0-7.182-4.41-10.54-13.444-10.54-8.806,0-13.551,3.872-13.551,11.233v1.219c0,7,3.3,8.915,9.38,10.014l7.362,1.338c3.823.693,5.843,1.625,5.843,5.9V798.9c0,4.254-2.115,6.393-6.728,6.9a8.978,8.978,0,0,1-.1,3.967c7.588-.609,11.687-4.434,11.687-11.209v-1.207C1172.819,790.328,1169.461,788.357,1163.438,787.257Zm-16.694,9.094h-.239l1.064,1.876,1.792,3.155.538.932a1.263,1.263,0,0,1,.227-.1Z" transform="translate(-1145.37 -768.03)" fill="#007ea0"/>
      <path id="Tracciato_1295" data-name="Tracciato 1295" d="M1188.545,768.56h-10.42a2.4,2.4,0,0,0-2.6,2.6V807.66a1.361,1.361,0,0,0,1.446,1.446H1179a1.367,1.367,0,0,0,1.446-1.446V794.4h8.1c9.046,0,13.682-3.943,13.682-11.639V780.2C1202.227,772.5,1197.591,768.56,1188.545,768.56Zm8.7,14.423c0,4.923-2.844,7.3-8.7,7.3h-8.1V772.611h8.1c5.855,0,8.7,2.438,8.7,7.361Z" transform="translate(-1139.492 -767.927)" fill="#007ea0"/>
      <path id="Tracciato_1296" data-name="Tracciato 1296" d="M1231.844,781.884v-2.139c0-7.3-4.53-11.185-13.038-11.185h-11.651a2.4,2.4,0,0,0-2.6,2.6V807.66a1.37,1.37,0,0,0,1.458,1.446h2.02a1.361,1.361,0,0,0,1.446-1.446V772.611h9.332c5.33,0,8.054,2.318,8.054,6.955v2.378c0,4.577-2.724,6.9-8.054,6.9h-2.665a1.828,1.828,0,0,0-2.031,1.912v.107a3.724,3.724,0,0,0,1.039,2.259l12,15.3a2.54,2.54,0,0,0,3.537.586,2.291,2.291,0,0,0,.454-3.478l-10.361-12.858C1228.019,792.2,1231.844,788.54,1231.844,781.884Z" transform="translate(-1133.831 -767.927)" fill="#007ea0"/>
      <path id="Tracciato_1297" data-name="Tracciato 1297" d="M1238.087,768.56h-2.031a1.361,1.361,0,0,0-1.446,1.446V807.66a1.361,1.361,0,0,0,1.446,1.446h2.031a1.367,1.367,0,0,0,1.446-1.446V770.006A1.367,1.367,0,0,0,1238.087,768.56Z" transform="translate(-1127.97 -767.927)" fill="#007ea0"/>
      <path id="Tracciato_1298" data-name="Tracciato 1298" d="M1275.391,768.56h-1.745a1.361,1.361,0,0,0-1.446,1.446v31.512l-17.495-31.045c-.753-1.338-1.338-1.912-2.784-1.912h-1.565a2.117,2.117,0,0,0-2.366,2.318V807.66a1.361,1.361,0,0,0,1.446,1.446h1.673a1.331,1.331,0,0,0,1.446-1.446V776.029l17.674,31.165c.753,1.338,1.386,1.912,2.844,1.912h1.386a2.121,2.121,0,0,0,2.378-2.318V770.006A1.367,1.367,0,0,0,1275.391,768.56Z" transform="translate(-1125.361 -767.927)" fill="#007ea0"/>
      <path id="Tracciato_1299" data-name="Tracciato 1299" d="M1307.334,788.763h-11.125a1.492,1.492,0,0,0-1.685,1.625v.86a1.471,1.471,0,0,0,1.685,1.565h8.221v4.7c0,5.557-2.951,8.341-9.321,8.341-6.429,0-9.906-3.358-9.906-9.619v-14.77c0-6.082,3.418-9.44,9.787-9.44,6.489,0,9.273,2.725,9.273,8.114v.633a.883.883,0,0,0,.98.98h2.784a.922.922,0,0,0,.98-1.04v-.573c0-7.994-4.744-12.105-14.017-12.105-9.321,0-14.77,4.923-14.77,13.838V796c0,8.927,5.509,13.85,14.83,13.85,9.034,0,14.077-4.35,14.077-12.344v-6.955A1.589,1.589,0,0,0,1307.334,788.763Z" transform="translate(-1119.077 -768.03)" fill="#007ea0"/>
    </g>
    <path id="Tracciato_1300" data-name="Tracciato 1300" d="M1150.35,798.336a1.315,1.315,0,0,0-.227.1l-.538-.932-1.793-3.155-1.063-1.876-2.51-4.4.144-.132,2.6,4.529Z" transform="translate(6.76 6.639)" fill="#007ea0"/>
    <g id="Raggruppa_1136" data-name="Raggruppa 1136" transform="translate(1109.549 753.893)">
      <g id="Raggruppa_1135" data-name="Raggruppa 1135" transform="translate(0)">
        <g id="Raggruppa_1134" data-name="Raggruppa 1134">
          <path id="Tracciato_1301" data-name="Tracciato 1301" d="M1164.71,812.587a5.833,5.833,0,0,1-10.886-4.183,5.767,5.767,0,0,1,1.518-2.294l-3.334-5.76-2.462-4.278-3.095-5.365a4.919,4.919,0,0,1-1.327.167,5.742,5.742,0,0,1-2.2-.358l-.18-.072-8.783,15.224a5.851,5.851,0,1,1-1.781-1.123l8.783-15.224a5.747,5.747,0,0,1-.167-8.377l-8.783-15.212a5.713,5.713,0,0,1-3.621-.179l-8.866,15.379a5.829,5.829,0,1,1-1.745-1.219l8.819-15.272a5.821,5.821,0,1,1,8.891-1.291,6.131,6.131,0,0,1-1.517,1.661l3.047,5.354.012.024,2.94,5.162,2.51,4.4c.024-.012.036-.024.06-.024a6.226,6.226,0,0,1,5.616.334,5.808,5.808,0,0,1,2.426,7.026,5.323,5.323,0,0,1-.466.992,4.36,4.36,0,0,1-.442.609,5.4,5.4,0,0,1-1.278,1.171.718.718,0,0,1-.12.084l.347.609,2.306,4.063.048.1,2.51,4.4,1.063,1.876,1.792,3.155.538.932a1.3,1.3,0,0,1,.227-.1.6.6,0,0,1,.155-.06,5.819,5.819,0,0,1,7.122,2.569,5.481,5.481,0,0,1,.5,1.159A5.875,5.875,0,0,1,1164.71,812.587Z" transform="translate(-1109.549 -753.893)" fill="#99d2e3"/>
        </g>
      </g>
      <path id="Tracciato_1302" data-name="Tracciato 1302" d="M1150.791,799.107a1.3,1.3,0,0,0-.227.1l-.538-.932-1.792-3.155-1.063-1.876-2.51-4.4-.047-.1-2.306-4.063-.347-.609a.7.7,0,0,0,.12-.084l2.725,4.72,2.6,4.529Z" transform="translate(-1103.229 -748.025)" fill="#99d2e3"/>
      <path id="Tracciato_1303" data-name="Tracciato 1303" d="M1138.059,777.066c-.024,0-.036.012-.06.024l-2.509-4.4-2.939-5.162Z" transform="translate(-1105.064 -751.234)" fill="#99d2e3"/>
    </g>
  </g>
</svg>
